<svg width="60" height="53" viewBox="0 0 60 53" fill="none" xmlns="http://www.w3.org/2000/svg">
<path d="M30 5.51073C26.717 5.51073 23.4661 6.15737 20.4329 7.41374C17.3998 8.67011 14.6438 10.5116 12.3223 12.8331C7.63392 17.5215 5 23.8803 5 30.5107C5 37.1411 7.63392 43.5 12.3223 48.1884C14.6438 50.5099 17.3998 52.3514 20.4329 53.6077C23.4661 54.8641 26.717 55.5107 30 55.5107C36.6304 55.5107 42.9893 52.8768 47.6777 48.1884C52.3661 43.5 55 37.1411 55 30.5107C55 27.2277 54.3534 23.9768 53.097 20.9436C51.8406 17.9105 49.9991 15.1545 47.6777 12.8331C45.3562 10.5116 42.6002 8.67011 39.5671 7.41374C36.5339 6.15737 33.283 5.51073 30 5.51073ZM17.675 46.2107C18.75 43.9607 25.3 41.7607 30 41.7607C34.7 41.7607 41.25 43.9607 42.325 46.2107C38.8235 49.0008 34.4772 50.5171 30 50.5107C25.35 50.5107 21.075 48.9107 17.675 46.2107ZM45.9 42.5857C42.325 38.2357 33.65 36.7607 30 36.7607C26.35 36.7607 17.675 38.2357 14.1 42.5857C11.4405 39.1223 9.99916 34.8775 10 30.5107C10 19.4857 18.975 10.5107 30 10.5107C41.025 10.5107 50 19.4857 50 30.5107C50 35.0607 48.45 39.2607 45.9 42.5857ZM30 15.5107C25.15 15.5107 21.25 19.4107 21.25 24.2607C21.25 29.1107 25.15 33.0107 30 33.0107C34.85 33.0107 38.75 29.1107 38.75 24.2607C38.75 19.4107 34.85 15.5107 30 15.5107ZM30 28.0107C29.0054 28.0107 28.0516 27.6156 27.3483 26.9124C26.6451 26.2091 26.25 25.2553 26.25 24.2607C26.25 23.2662 26.6451 22.3123 27.3483 21.6091C28.0516 20.9058 29.0054 20.5107 30 20.5107C30.9946 20.5107 31.9484 20.9058 32.6516 21.6091C33.3549 22.3123 33.75 23.2662 33.75 24.2607C33.75 25.2553 33.3549 26.2091 32.6516 26.9124C31.9484 27.6156 30.9946 28.0107 30 28.0107Z" fill="#0F3EB6"/>
</svg>
