<svg width="72" height="81" viewBox="0 0 72 81" fill="none" xmlns="http://www.w3.org/2000/svg">
<g filter="url(#filter0_d_20_492)">
<path d="M60 17.2747H12C8.7 17.2747 6.03 20.2876 6.03 23.97L6 57.4464C6 61.1288 8.7 64.1416 12 64.1416H60C63.3 64.1416 66 61.1288 66 57.4464V23.97C66 20.2876 63.3 17.2747 60 17.2747ZM33 27.3176H39V34.0129H33V27.3176ZM33 37.3605H39V44.0558H33V37.3605ZM24 27.3176H30V34.0129H24V27.3176ZM24 37.3605H30V44.0558H24V37.3605ZM21 44.0558H15V37.3605H21V44.0558ZM21 34.0129H15V27.3176H21V34.0129ZM48 57.4464H24V50.7511H48V57.4464ZM48 44.0558H42V37.3605H48V44.0558ZM48 34.0129H42V27.3176H48V34.0129ZM57 44.0558H51V37.3605H57V44.0558ZM57 34.0129H51V27.3176H57V34.0129Z" fill="#4CAF50"/>
</g>
<defs>
<filter id="filter0_d_20_492" x="3" y="15.2747" width="66" height="52.867" filterUnits="userSpaceOnUse" color-interpolation-filters="sRGB">
<feFlood flood-opacity="0" result="BackgroundImageFix"/>
<feColorMatrix in="SourceAlpha" type="matrix" values="0 0 0 0 0 0 0 0 0 0 0 0 0 0 0 0 0 0 127 0" result="hardAlpha"/>
<feOffset dy="1"/>
<feGaussianBlur stdDeviation="1.5"/>
<feColorMatrix type="matrix" values="0 0 0 0 0 0 0 0 0 0 0 0 0 0 0 0 0 0 0.2 0"/>
<feBlend mode="normal" in2="BackgroundImageFix" result="effect1_dropShadow_20_492"/>
<feBlend mode="normal" in="SourceGraphic" in2="effect1_dropShadow_20_492" result="shape"/>
</filter>
</defs>
</svg>
