<svg width="72" height="63" viewBox="0 0 72 63" fill="none" xmlns="http://www.w3.org/2000/svg">
<g clip-path="url(#clip0_20_499)">
<g clip-path="url(#clip1_20_499)">
<path d="M61.9942 39.4612V39.513C61.9942 54.4237 49.9072 66.5107 34.9965 66.5107C28.8078 66.5206 22.8052 64.3947 18.0022 60.492L18.0517 60.5325C17.7674 60.3017 17.5348 60.0137 17.3689 59.6873C17.203 59.3609 17.1075 59.0032 17.0887 58.6375C17.0698 58.2718 17.1279 57.9063 17.2593 57.5645C17.3907 57.2227 17.5925 56.9123 17.8515 56.6535L19.0777 55.4272C19.5301 54.9705 20.1349 54.6964 20.7766 54.6574C21.4183 54.6184 22.0518 54.8172 22.5562 55.2157L22.5517 55.2112C26.0874 58.0253 30.4753 59.5527 34.9942 59.5425C38.2628 59.5425 41.4817 58.7426 44.3702 57.2127C47.2586 55.6828 49.7288 53.4694 51.5653 50.7654C53.4017 48.0615 54.5486 44.9493 54.9059 41.7003C55.2631 38.4513 54.82 35.1642 53.615 32.1258C52.41 29.0875 50.4798 26.3901 47.9928 24.2691C45.5058 22.1481 42.5376 20.6679 39.3471 19.9577C36.1566 19.2474 32.8408 19.3286 29.6889 20.1943C26.537 21.06 23.6448 22.6837 21.2647 24.924L21.276 24.915L26.802 30.441C27.0454 30.6847 27.2111 30.9951 27.2781 31.3329C27.3451 31.6708 27.3104 32.0209 27.1784 32.339C27.0465 32.6572 26.8231 32.929 26.5366 33.1202C26.2501 33.3115 25.9134 33.4134 25.569 33.4132H9.74248C9.2806 33.4132 8.83764 33.2298 8.51105 32.9032C8.18446 32.5766 8.00098 32.1336 8.00098 31.6717V15.8452C8.00187 15.5013 8.10446 15.1653 8.29584 14.8795C8.48723 14.5937 8.75886 14.3709 9.07656 14.2391C9.39426 14.1073 9.74384 14.0724 10.0813 14.1388C10.4188 14.2052 10.7291 14.3699 10.9732 14.6122L16.3485 19.9875C21.366 15.1797 28.0496 12.5003 34.9987 12.5107C49.8915 12.5107 61.9695 24.5707 61.9965 39.4567V39.459L61.9942 39.4612ZM42.3 48.036L43.3687 46.6612C43.5799 46.3911 43.7358 46.0819 43.8273 45.7515C43.9188 45.421 43.9442 45.0757 43.9019 44.7354C43.8597 44.3951 43.7507 44.0664 43.5812 43.7683C43.4117 43.4702 43.1851 43.2085 42.9142 42.9982L42.9075 42.9937L38.4772 39.5467V28.1887C38.4772 26.7465 37.3072 25.5742 35.8627 25.5742H34.1212C32.679 25.5742 31.5067 26.7442 31.5067 28.1887V42.9487L38.628 48.486C39.1733 48.9129 39.8658 49.1061 40.5534 49.023C41.241 48.9399 41.8675 48.5873 42.2955 48.0427L42.3 48.036Z" fill="#979797"/>
</g>
</g>
<defs>
<clipPath id="clip0_20_499">
<rect width="72" height="62.4893" fill="white" transform="translate(0 0.510727)"/>
</clipPath>
<clipPath id="clip1_20_499">
<rect width="54" height="54" fill="white" transform="translate(8 12.5107)"/>
</clipPath>
</defs>
</svg>
