<svg width="72" height="63" viewBox="0 0 72 63" fill="none" xmlns="http://www.w3.org/2000/svg">
<g clip-path="url(#clip0_20_485)">
<path d="M38.16 33.4C36.72 33.04 35.28 32.32 34.2 31.24C33.12 30.88 32.76 29.8 32.76 29.08C32.76 28.36 33.12 27.28 33.84 26.92C34.92 26.2 36 25.48 37.08 25.84C39.24 25.84 41.04 26.92 42.12 28.36L45.36 24.04C44.28 22.96 43.2 22.24 42.12 21.52C41.04 20.8 39.6 20.44 38.16 20.44V15.4H33.84V20.44C32.04 20.8 30.24 21.88 28.8 23.32C27.36 25.12 26.28 27.28 26.64 29.44C26.64 31.6 27.36 33.76 28.8 35.2C30.6 37 33.12 38.08 35.28 39.16C36.36 39.52 37.8 40.24 38.88 40.96C39.6 41.68 39.96 42.76 39.96 43.84C39.96 44.92 39.6 46 38.88 47.08C37.8 48.16 36.36 48.52 35.28 48.52C33.84 48.52 32.04 48.16 30.96 47.08C29.88 46.36 28.8 45.28 28.08 44.2L24.48 48.16C25.56 49.6 26.64 50.68 28.08 51.76C29.88 52.84 32.04 53.92 34.2 53.92V58.6H38.16V53.2C40.32 52.84 42.12 51.76 43.56 50.32C45.36 48.52 46.44 45.64 46.44 43.12C46.44 40.96 45.72 38.44 43.92 37C42.12 35.2 40.32 34.12 38.16 33.4ZM36 8.2C20.16 8.2 7.19995 21.16 7.19995 37C7.19995 52.84 20.16 65.8 36 65.8C51.84 65.8 64.8 52.84 64.8 37C64.8 21.16 51.84 8.2 36 8.2ZM36 61.84C22.32 61.84 11.16 50.68 11.16 37C11.16 23.32 22.32 12.16 36 12.16C49.68 12.16 60.84 23.32 60.84 37C60.84 50.68 49.68 61.84 36 61.84Z" fill="#F75B00"/>
</g>
<defs>
<clipPath id="clip0_20_485">
<rect width="72" height="62.4893" fill="white" transform="translate(0 0.0987091)"/>
</clipPath>
</defs>
</svg>
