<svg width="53" height="53" viewBox="0 0 53 53" fill="none" xmlns="http://www.w3.org/2000/svg">
<g clip-path="url(#clip0_44_431)">
<path d="M44.5199 30.74L40.6332 22.9667C40.2995 22.4239 39.8316 21.9763 39.2746 21.6668C38.7176 21.3574 38.0903 21.1966 37.4532 21.2H15.5465C14.9094 21.1966 14.2821 21.3574 13.7251 21.6668C13.1682 21.9763 12.7003 22.4239 12.3665 22.9667L8.47987 30.74L4.09854 34.8104C3.92005 34.9759 3.7777 35.1766 3.68042 35.3997C3.58313 35.6229 3.53301 35.8637 3.5332 36.1071V51.2333C3.5332 51.7019 3.71933 52.1512 4.05065 52.4826C4.38196 52.8139 4.83132 53 5.29987 53H12.3665C13.0732 53 14.1332 52.2933 14.1332 51.5867V49.4667H38.8665V51.2333C38.8665 51.94 39.5732 53 40.2799 53H47.6999C48.1684 53 48.6178 52.8139 48.9491 52.4826C49.2804 52.1512 49.4665 51.7019 49.4665 51.2333V36.1071C49.4667 35.8637 49.4166 35.6229 49.3193 35.3997C49.222 35.1766 49.0797 34.9759 48.9012 34.8104L44.5199 30.74ZM15.8999 24.7333H37.0999L40.6332 31.8H12.3665L15.8999 24.7333ZM17.6665 40.9867C17.6665 41.6933 16.6065 42.4 15.8999 42.4H8.47987C7.7732 42.4 7.06654 41.34 7.06654 40.6333V36.7467C7.41987 35.6867 8.12654 34.98 9.18654 35.3333L16.2532 36.7467C16.9599 36.7467 17.6665 37.8067 17.6665 38.5133V40.9867ZM45.9332 40.6333C45.9332 41.34 45.2265 42.4 44.5199 42.4H37.0999C36.3932 42.4 35.3332 41.6933 35.3332 40.9867V38.5133C35.3332 37.8067 36.0399 36.7467 36.7465 36.7467L43.8132 35.3333C44.8732 34.98 45.5799 35.6867 45.9332 36.7467V40.6333ZM49.4665 7.06667V10.6C49.4581 11.5449 49.0749 12.4479 48.4011 13.1104C47.7273 13.7729 46.8181 14.1409 45.8731 14.1333H18.8961C17.9494 15.3711 16.6978 16.342 15.2635 16.9513C13.8293 17.5605 12.2615 17.7872 10.7134 17.6092C9.1653 17.4311 7.68989 16.8545 6.43135 15.9356C5.17282 15.0167 4.17424 13.787 3.5332 12.3667H12.3665V5.3H3.5332C4.17424 3.87967 5.17282 2.64996 6.43135 1.73106C7.68989 0.812168 9.1653 0.235528 10.7134 0.0575045C12.2615 -0.120518 13.8293 0.106167 15.2635 0.715405C16.6978 1.32464 17.9494 2.29559 18.8961 3.53334H45.8731C46.8181 3.52581 47.7273 3.89373 48.4011 4.55627C49.0749 5.2188 49.4581 6.12174 49.4665 7.06667Z" fill="#F44336"/>
</g>
<defs>
<clipPath id="clip0_44_431">
<rect width="53" height="53" fill="white"/>
</clipPath>
</defs>
</svg>
