<svg width="81" height="80" viewBox="0 0 81 80" fill="none" xmlns="http://www.w3.org/2000/svg">
<g clip-path="url(#clip0_41_209)">
<path d="M79.4953 44.715C77.8359 43.2103 75.2484 43.3087 73.5047 44.715L60.5109 55.1072C58.9219 56.3869 56.9391 57.0759 54.8859 57.0759H38.25C37.0125 57.0759 36 56.0634 36 54.8259C36 53.5884 37.0125 52.5759 38.25 52.5759H49.2609C51.4969 52.5759 53.5781 51.0431 53.9438 48.8353C54.4078 46.0228 52.2422 43.5759 49.5 43.5759H27C23.2031 43.5759 19.5328 44.8837 16.5797 47.2743L10.0406 52.5759H2.25C1.0125 52.5759 0 53.5884 0 54.8259V68.3259C0 69.5634 1.0125 70.5759 2.25 70.5759H52.425C54.4641 70.5759 56.4469 69.8869 58.05 68.6072L79.3125 51.5915C81.45 49.89 81.6188 46.6275 79.4953 44.715Z" fill="#0F3EB6"/>
</g>
<path d="M77.1429 23.9094L74.3556 21.5263C74.4875 20.7178 74.5556 19.8922 74.5556 19.0666C74.5556 18.2411 74.4875 17.4155 74.3556 16.607L77.1429 14.2239C77.3532 14.0439 77.5036 13.8042 77.5743 13.5366C77.645 13.2691 77.6326 12.9863 77.5387 12.726L77.5004 12.6153C76.733 10.4707 75.584 8.48258 74.1088 6.74705L74.0322 6.65768C73.8532 6.44726 73.6147 6.296 73.3481 6.22383C73.0814 6.15166 72.7992 6.16198 72.5385 6.25341L69.0788 7.48324C67.8022 6.4364 66.3766 5.61084 64.8361 5.03209L64.168 1.41494C64.1176 1.14277 63.9856 0.892383 63.7895 0.697037C63.5934 0.501691 63.3425 0.370638 63.0701 0.321288L62.9552 0.300011C60.7381 -0.100004 58.4061 -0.100004 56.189 0.300011L56.0741 0.321288C55.8017 0.370638 55.5508 0.501691 55.3547 0.697037C55.1586 0.892383 55.0266 1.14277 54.9762 1.41494L54.3038 5.04912C52.7757 5.62798 51.3525 6.4531 50.0909 7.49176L46.6057 6.25341C46.3451 6.16125 46.0627 6.15056 45.7959 6.22277C45.5291 6.29498 45.2906 6.44667 45.112 6.65768L45.0354 6.74705C43.562 8.48381 42.4131 10.4716 41.6438 12.6153L41.6055 12.726C41.414 13.2579 41.5715 13.8537 42.0013 14.2239L44.8227 16.6325C44.6907 17.4325 44.6269 18.2496 44.6269 19.0624C44.6269 19.8794 44.6907 20.6965 44.8227 21.4923L42.0013 23.9009C41.791 24.0808 41.6406 24.3205 41.5699 24.5881C41.4992 24.8557 41.5116 25.1384 41.6055 25.3988L41.6438 25.5094C42.4141 27.6542 43.5545 29.633 45.0354 31.3777L45.112 31.4671C45.291 31.6775 45.5295 31.8288 45.7961 31.9009C46.0628 31.9731 46.345 31.9628 46.6057 31.8713L50.0909 30.633C51.3591 31.6756 52.7761 32.5012 54.3038 33.0756L54.9762 36.7098C55.0266 36.982 55.1586 37.2324 55.3547 37.4277C55.5508 37.6231 55.8017 37.7541 56.0741 37.8035L56.189 37.8247C58.4265 38.2269 60.7177 38.2269 62.9552 37.8247L63.0701 37.8035C63.3425 37.7541 63.5934 37.6231 63.7895 37.4277C63.9856 37.2324 64.1176 36.982 64.168 36.7098L64.8361 33.0927C66.376 32.5154 67.8096 31.6872 69.0788 30.6415L72.5385 31.8713C72.7991 31.9635 73.0816 31.9742 73.3484 31.902C73.6152 31.8298 73.8537 31.6781 74.0322 31.4671L74.1088 31.3777C75.5897 29.6287 76.7302 27.6542 77.5004 25.5094L77.5387 25.3988C77.7302 24.8754 77.5727 24.2796 77.1429 23.9094ZM71.3342 17.1091C71.4406 17.7517 71.4959 18.4113 71.4959 19.0709C71.4959 19.7305 71.4406 20.3901 71.3342 21.0327L71.0534 22.7391L74.2322 25.4584C73.7503 26.5686 73.142 27.6195 72.4194 28.5904L68.4703 27.1903L67.1341 28.2882C66.117 29.1223 64.9851 29.7777 63.7595 30.2372L62.1382 30.8458L61.3764 34.9736C60.1746 35.1098 58.9611 35.1098 57.7593 34.9736L56.9975 30.8373L55.389 30.2202C54.1762 29.7606 53.0485 29.1053 52.0399 28.2755L50.7037 27.1733L46.7291 28.5861C46.0057 27.6116 45.4014 26.5605 44.9163 25.4541L48.1292 22.7093L47.8525 21.0071C47.7504 20.3731 47.6951 19.7177 47.6951 19.0709C47.6951 18.4198 47.7462 17.7687 47.8525 17.1347L48.1292 15.4325L44.9163 12.6877C45.3971 11.577 46.0057 10.5302 46.7291 9.55566L50.7037 10.9685L52.0399 9.86631C53.0485 9.03649 54.1762 8.38115 55.389 7.92156L57.0018 7.31303L57.7635 3.17671C58.9593 3.04053 60.1806 3.04053 61.3807 3.17671L62.1424 7.30451L63.7637 7.91305C64.9851 8.37264 66.1213 9.02798 67.1383 9.86205L68.4745 10.96L72.4236 9.55991C73.1471 10.5344 73.7513 11.5855 74.2365 12.6919L71.0576 15.4112L71.3342 17.1091ZM59.5764 11.1557C55.44 11.1557 52.0867 14.509 52.0867 18.6453C52.0867 22.7817 55.44 26.135 59.5764 26.135C63.7127 26.135 67.066 22.7817 67.066 18.6453C67.066 14.509 63.7127 11.1557 59.5764 11.1557ZM62.9467 22.0157C62.5046 22.459 61.9793 22.8105 61.4009 23.0501C60.8225 23.2896 60.2024 23.4124 59.5764 23.4115C58.304 23.4115 57.1082 22.9136 56.206 22.0157C55.7627 21.5736 55.4112 21.0483 55.1716 20.4699C54.9321 19.8915 54.8093 19.2714 54.8102 18.6453C54.8102 17.373 55.3081 16.1772 56.206 15.275C57.1082 14.3729 58.304 13.8792 59.5764 13.8792C60.8487 13.8792 62.0445 14.3729 62.9467 15.275C63.39 15.7171 63.7416 16.2424 63.9811 16.8208C64.2206 17.3992 64.3435 18.0193 64.3425 18.6453C64.3425 19.9177 63.8446 21.1135 62.9467 22.0157Z" fill="#0F3EB6"/>
<defs>
<clipPath id="clip0_41_209">
<rect width="81" height="72" fill="white" transform="translate(0 7.68983)"/>
</clipPath>
</defs>
</svg>
